# xmcd
#
# Track frame offsets: 
#        150
#        14920
#        25607
#        37047
#        48292
#        65790
#        81600
#        91615
#        104445
#        115455
#        128415
#        137865
#        150165
#        161840
#        173695
#        183822
#        197925
#        210802
#        223009
#        239237
#
# Disc length: 3307 seconds
#
# Revision: 0
# Processed by: cddbd v1.5.2PL0 Copyright (c) Steve Scherf et al.
# Submitted via: ExactAudioCopy v0.99pb3
#
DISCID=190ce914
DTITLE=His Servants - The Best of His Servants
DYEAR=1998
DGENRE=A Cappella
TTITLE0=First Million Years
TTITLE1=You Can Walk on the Water
TTITLE2=The Lighthouse
TTITLE3=Bloodwashed Band
TTITLE4=Amazing Grace
TTITLE5=Standing Outside
TTITLE6=Hide Me Rock of Ages
TTITLE7=Don't Weep for Me
TTITLE8=Higher Ground
TTITLE9=Just Step Inside
TTITLE10=Psalm 139
TTITLE11=John Saw the City
TTITLE12=Just a Little Talk with Jesus
TTITLE13=Remind Me Dear Lord
TTITLE14=Can He, Could He, Would He?
TTITLE15=Who Am I?
TTITLE16=God Put a Rainbow in the Cloud
TTITLE17=I Want to Hear
TTITLE18=The Secret of His Presence
TTITLE19=Step Into the Water
EXTD=
EXTT0=
EXTT1=
EXTT2=
EXTT3=
EXTT4=
EXTT5=
EXTT6=
EXTT7=
EXTT8=
EXTT9=
EXTT10=
EXTT11=
EXTT12=
EXTT13=
EXTT14=
EXTT15=
EXTT16=
EXTT17=
EXTT18=
EXTT19=
PLAYORDER=
